<?xml version="1.0" encoding="UTF-8"?>
<svg width="64" height="64" viewBox="0 0 64 64" fill="none" xmlns="http://www.w3.org/2000/svg">
  <rect width="64" height="64" rx="8" fill="#F3F4F6"/>
  <path d="M32 22C28.13 22 25 25.13 25 29C25 32.87 28.13 36 32 36C35.87 36 39 32.87 39 29C39 25.13 35.87 22 32 22ZM32 34C29.24 34 27 31.76 27 29C27 26.24 29.24 24 32 24C34.76 24 37 26.24 37 29C37 31.76 34.76 34 32 34Z" fill="#9CA3AF"/>
  <path d="M43 42H21C20.45 42 20 42.45 20 43V44C20 44.55 20.45 45 21 45H43C43.55 45 44 44.55 44 44V43C44 42.45 43.55 42 43 42Z" fill="#9CA3AF"/>
  <path d="M37 38H27C26.45 38 26 38.45 26 39V40C26 40.55 26.45 41 27 41H37C37.55 41 38 40.55 38 40V39C38 38.45 37.55 38 37 38Z" fill="#9CA3AF"/>
  <path d="M33 19H31C30.45 19 30 19.45 30 20V21C30 21.55 30.45 22 31 22H33C33.55 22 34 21.55 34 21V20C34 19.45 33.55 19 33 19Z" fill="#9CA3AF"/>
</svg>
